<svg height="512pt" viewBox="0 -56 512 512" width="512pt" xmlns="http://www.w3.org/2000/svg"><path d="m10 10.007812h492v66.019532h-492zm0 0" fill="#2ec8e3"/><path d="m511.988281 9.492188c-.269531-5.292969-4.636719-9.492188-9.988281-9.492188h-492c-5.351562 0-9.71875 4.199219-9.9882812 9.492188-.0117188.171874-.0117188.339843-.0117188.511718v379.992188c0 5.523437 4.480469 10.003906 10 10.003906h492c5.519531 0 10-4.480469 10-10.003906v-379.992188c0-.171875 0-.339844-.011719-.511718zm-19.988281 370.5h-472v-293.964844h472zm0-313.972657h-472v-46.132812h472zm0 0"/><path d="m171 53.644531h-80c-5.523438 0-10-4.476562-10-10 0-5.527343 4.476562-10.003906 10-10.003906h80c5.523438 0 10 4.476563 10 10.003906 0 5.523438-4.476562 10-10 10zm0 0"/><path d="m51.019531 53.644531c-5.523437 0-10.003906-4.476562-10.003906-10 0-5.527343 4.472656-10.003906 9.996094-10.003906h.007812c5.523438 0 10 4.476563 10 10.003906 0 5.523438-4.476562 10-10 10zm0 0"/><path d="m454 352.652344h-396c-5.523438 0-10-4.476563-10-10.003906v-220.066407c0-5.523437 4.476562-10.003906 10-10.003906h396c5.523438 0 10 4.480469 10 10.003906v220.066407c0 5.527343-4.476562 10.003906-10 10.003906zm-386-20.007813h376v-200.058593h-376zm0 0"/><path d="m196.640625 241.210938c0 5.523437-4.480469 10.003906-10 10.003906h-16.929687v29.578125c0 5.523437-4.480469 10.003906-10 10.003906-5.519532 0-10-4.480469-10-10.003906v-29.578125h-46.210938c-3.238281 0-6.289062-1.578125-8.160156-4.222656-1.878906-2.648438-2.351563-6.039063-1.269532-9.101563l20.640626-58.617187c1.828124-5.203126 7.539062-7.941407 12.75-6.113282 5.210937 1.84375 7.9375 7.554688 6.109374 12.765625l-15.949218 45.285157h32.089844v-35.234376c0-5.519531 4.480468-10 10-10 5.519531 0 10 4.480469 10 10v35.234376h16.929687c5.519531 0 10 4.46875 10 10zm0 0"/><path d="m256.769531 290.792969c-28.4375 0-51.574219-26.511719-51.574219-59.097657 0-32.585937 23.136719-59.097656 51.574219-59.097656 28.433594 0 51.570313 26.511719 51.570313 59.097656 0 32.585938-23.136719 59.097657-51.570313 59.097657zm0-98.1875c-17.410156 0-31.574219 17.535156-31.574219 39.089843 0 21.554688 14.164063 39.089844 31.574219 39.089844 17.40625 0 31.570313-17.535156 31.570313-39.089844 0-21.554687-14.164063-39.089843-31.570313-39.089843zm0 0"/><path d="m420.5 243.054688c0 5.519531-4.480469 10-10 10h-16.929688v29.582031c0 5.519531-4.480468 10-10 10-5.53125 0-10-4.480469-10-10v-29.582031h-46.210937c-3.25 0-6.289063-1.578126-8.160156-4.21875-1.878907-2.652344-2.347657-6.042969-1.269531-9.105469l20.628906-58.605469c1.839844-5.214844 7.550781-7.953125 12.761718-6.113281 5.210938 1.832031 7.941407 7.542969 6.109376 12.753906l-15.949219 45.285156h32.089843v-35.230469c0-5.523437 4.46875-10.003906 10-10.003906 5.519532 0 10 4.480469 10 10.003906v35.230469h16.929688c5.519531 0 10 4.46875 10 10.003907zm0 0"/></svg>